<svg version="1.0" xmlns="http://www.w3.org/2000/svg"
  viewBox="0 0 1260.000000 1089.000000"
 preserveAspectRatio="xMidYMid meet">

<g transform="translate(0.000000,1089.000000) scale(0.100000,-0.100000)"
fill="#fff" stroke="none">
<path d="M7295 10716 c-88 -28 -144 -72 -190 -151 -24 -40 -30 -63 -33 -131
-4 -71 -1 -89 20 -136 33 -70 75 -118 135 -150 26 -14 267 -92 534 -173 268
-81 491 -150 497 -154 6 -3 117 -432 248 -953 219 -874 236 -949 222 -965 -24
-27 -58 -136 -58 -187 0 -26 92 -410 209 -878 244 -972 258 -1046 261 -1423 0
-116 -4 -251 -10 -300 -6 -50 -12 -117 -15 -150 -4 -68 -28 -246 -51 -380
-157 -932 -545 -1917 -969 -2459 -82 -105 -228 -246 -296 -285 l-54 -31 -1980
0 -1981 0 -27 116 c-172 720 -747 1295 -1467 1469 -300 72 -636 74 -926 5
-333 -78 -642 -241 -889 -469 -91 -83 -226 -235 -241 -270 -8 -18 -14 -54 -14
-80 0 -115 127 -202 235 -161 14 5 97 81 183 168 174 175 267 245 447 335 200
100 376 149 606 168 492 42 1003 -159 1334 -524 174 -192 319 -455 375 -677 6
-25 14 -53 16 -63 5 -16 -4 -17 -136 -15 l-141 3 -25 75 c-67 201 -174 371
-333 530 -200 200 -417 318 -691 377 -131 28 -441 25 -569 -5 -633 -151 -1071
-702 -1071 -1349 0 -120 34 -306 80 -437 27 -75 116 -258 141 -290 5 -6 36
-48 69 -92 183 -249 478 -434 808 -506 131 -29 396 -31 522 -5 371 78 676 280
882 584 61 92 140 253 165 339 l18 64 2345 3 c2591 3 2372 -3 2538 64 271 108
543 371 815 789 148 228 265 449 433 820 82 183 236 620 309 881 27 95 52 173
55 173 8 0 303 -1170 297 -1177 -3 -2 -37 -25 -75 -51 -253 -169 -431 -393
-535 -672 -182 -489 -69 -1032 292 -1413 397 -417 1011 -541 1536 -311 209 92
428 266 534 423 14 20 28 38 31 41 17 12 87 132 125 215 47 99 74 184 103 320
25 114 28 360 6 479 -52 284 -182 536 -378 732 -241 240 -537 378 -860 402
l-89 7 -284 1125 c-155 619 -292 1159 -303 1200 -12 41 -27 100 -34 130 -7 30
-21 82 -31 115 -9 33 -20 80 -25 105 -12 72 -580 2320 -594 2354 -24 55 -74
114 -127 150 l-51 34 -205 812 c-112 447 -202 814 -200 816 2 2 23 -2 48 -10
24 -8 136 -43 248 -77 188 -56 211 -61 275 -57 86 6 141 32 202 94 125 129
107 360 -36 459 -50 34 -94 51 -355 130 -121 37 -456 139 -745 227 -1082 330
-1014 313 -1105 284z m-5341 -8611 c137 -29 292 -122 372 -223 24 -32 44 -60
44 -64 0 -5 -96 -8 -213 -8 -246 0 -302 -10 -386 -68 -60 -41 -114 -112 -133
-175 -7 -23 -13 -76 -13 -117 0 -61 6 -87 28 -136 36 -77 104 -144 182 -181
60 -28 62 -28 298 -31 148 -2 237 -7 237 -14 0 -5 -37 -47 -83 -92 -133 -133
-282 -196 -466 -196 -240 0 -436 110 -570 319 -57 88 -83 181 -88 311 -6 129
13 223 63 323 137 269 436 414 728 352z m8956 -66 c222 -117 364 -369 347
-619 -20 -294 -219 -533 -507 -606 -49 -12 -93 -15 -180 -11 -185 7 -311 61
-439 188 -126 125 -182 256 -189 437 -5 132 12 220 60 317 33 66 107 170 115
161 3 -2 29 -99 58 -215 32 -129 62 -226 78 -253 35 -59 91 -111 157 -145 49
-25 65 -28 150 -28 89 0 99 3 158 34 113 61 181 165 189 290 4 56 -3 98 -46
267 -28 110 -51 206 -51 213 0 16 28 7 100 -30z"/>
</g>
</svg>
